<?xml version="1.0" standalone="no"?>
<!DOCTYPE svg PUBLIC "-//W3C//DTD SVG 20010904//EN"
 "http://www.w3.org/TR/2001/REC-SVG-20010904/DTD/svg10.dtd">
<svg version="1.0" xmlns="http://www.w3.org/2000/svg"
 width="800.000000pt" height="800.000000pt" viewBox="0 0 800.000000 800.000000"
 preserveAspectRatio="xMidYMid meet">
<metadata>
Created by potrace 1.14, written by Peter Selinger 2001-2017
</metadata>
<g transform="translate(0.000000,800.000000) scale(0.100000,-0.100000)"
fill="#000000" stroke="none">
<path d="M3768 7895 c-2 -2 -33 -6 -68 -9 -36 -3 -83 -7 -105 -10 -22 -3 -65
-7 -95 -10 -30 -4 -66 -8 -80 -11 -45 -9 -74 -15 -111 -20 -32 -5 -101 -19
-194 -40 -20 -5 -26 -6 -105 -25 -25 -6 -76 -21 -115 -33 -38 -12 -72 -22 -75
-22 -12 -2 -176 -58 -185 -64 -5 -3 -15 -6 -22 -7 -6 -1 -78 -30 -160 -65
-139 -59 -231 -104 -383 -187 -103 -56 -105 -57 -110 -63 -3 -3 -16 -12 -30
-19 -91 -47 -450 -304 -450 -322 0 -4 -5 -8 -10 -8 -6 0 -18 -8 -28 -17 -11
-10 -50 -45 -87 -78 -156 -136 -349 -340 -479 -505 -19 -25 -41 -52 -48 -60
-35 -41 -182 -255 -229 -335 -29 -49 -56 -92 -59 -95 -20 -19 -196 -381 -243
-500 -14 -36 -31 -78 -38 -95 -7 -16 -13 -34 -15 -40 -1 -5 -21 -66 -44 -135
-23 -69 -43 -132 -45 -140 -2 -8 -9 -35 -16 -60 -14 -52 -15 -56 -22 -90 -3
-14 -10 -43 -15 -65 -6 -22 -13 -51 -16 -65 -4 -27 -16 -93 -22 -125 -10 -50
-25 -150 -30 -193 -3 -26 -7 -58 -9 -72 -25 -158 -24 -700 1 -865 2 -16 6 -48
8 -70 5 -47 21 -146 36 -230 6 -33 13 -69 15 -80 1 -11 8 -38 13 -60 6 -22 13
-51 16 -65 17 -86 119 -415 157 -505 7 -16 13 -32 14 -35 1 -3 7 -18 13 -33 7
-16 12 -30 12 -32 0 -7 84 -186 129 -275 81 -158 96 -185 104 -188 4 -2 7 -10
7 -18 0 -8 5 -14 10 -14 6 0 10 -6 10 -12 0 -23 211 -337 232 -346 5 -2 8 -8
8 -14 0 -8 88 -121 135 -174 6 -6 35 -40 65 -75 77 -90 282 -293 365 -363 39
-33 72 -62 75 -66 3 -3 34 -28 70 -55 36 -28 67 -52 70 -55 8 -8 138 -101 205
-146 86 -59 263 -164 274 -164 5 0 11 -4 13 -8 4 -10 306 -159 358 -177 3 -1
14 -6 25 -10 85 -37 181 -73 184 -69 2 2 5 18 6 36 6 86 17 214 20 218 2 3 6
34 10 70 4 36 9 67 10 70 2 3 6 28 9 55 4 28 9 61 12 75 10 49 14 70 19 97 3
24 47 215 60 263 3 8 9 31 14 50 5 19 17 62 26 95 9 33 20 69 25 80 5 11 21
58 36 105 27 87 74 210 99 267 8 17 15 34 15 37 0 15 152 334 183 386 12 19
22 39 23 45 2 16 149 258 223 368 36 54 71 106 76 115 6 9 12 19 15 22 3 3 32
41 65 85 33 44 64 85 70 91 5 7 24 29 40 50 17 21 39 48 51 60 11 12 31 34 43
50 35 45 190 211 255 273 32 31 79 76 105 101 58 56 162 146 244 212 12 10 36
29 52 43 82 67 321 235 334 235 5 0 11 3 13 8 2 4 39 30 83 57 44 27 83 53 86
58 3 5 9 8 13 8 6 -1 54 23 91 46 11 7 32 17 48 24 15 6 27 15 27 20 0 5 5 9
12 9 7 0 50 20 97 44 148 76 524 234 596 251 6 1 17 5 25 8 8 3 47 16 85 27
39 12 81 25 95 30 21 7 45 14 95 26 6 1 57 14 115 29 58 15 112 28 120 30 8 1
35 6 60 11 25 4 47 8 50 9 3 1 25 5 50 9 25 5 54 10 65 12 11 2 40 7 65 10 25
3 53 8 62 9 9 2 48 7 85 10 37 4 77 9 88 11 124 25 730 25 945 0 148 -17 139
-18 134 12 -13 83 -27 159 -32 172 -3 8 -6 22 -8 30 -2 8 -6 31 -10 50 -5 19
-8 40 -9 45 -1 20 -47 181 -56 197 -5 10 -9 27 -9 38 0 11 -4 28 -9 38 -5 9
-28 71 -51 137 -129 366 -320 723 -558 1043 -44 59 -88 117 -98 128 -11 12
-37 43 -59 70 -125 150 -342 367 -475 474 -30 25 -61 51 -68 58 -8 7 -30 25
-50 40 -21 15 -39 29 -42 32 -3 3 -27 21 -55 39 -27 19 -52 37 -55 40 -12 14
-70 51 -79 51 -5 0 -11 3 -13 8 -5 11 -66 52 -78 52 -5 0 -10 5 -10 10 0 6 -4
10 -8 10 -7 0 -109 58 -197 112 -11 7 -22 13 -25 13 -3 0 -21 9 -40 20 -136
75 -501 234 -512 224 -2 -1 -13 3 -26 10 -13 7 -31 14 -40 16 -9 2 -37 11 -62
20 -25 9 -52 18 -60 21 -8 2 -76 20 -150 40 -74 20 -148 38 -165 41 -42 7 -60
11 -60 13 0 1 -13 3 -30 5 -16 2 -41 7 -55 10 -13 4 -40 9 -60 11 -19 3 -48 7
-65 10 -16 2 -48 7 -70 9 -22 3 -58 7 -80 10 -22 3 -62 8 -90 11 -58 5 -602
14 -607 9z"/>
</g>
</svg>
